<?xml version="1.0" standalone="no"?>
<!DOCTYPE svg PUBLIC "-//W3C//DTD SVG 20010904//EN"
 "http://www.w3.org/TR/2001/REC-SVG-20010904/DTD/svg10.dtd">
<svg version="1.0" xmlns="http://www.w3.org/2000/svg"
 width="400.000000pt" height="200.000000pt" viewBox="0 0 400.000000 200.000000"
 preserveAspectRatio="xMidYMid meet">
<metadata>
Created by potrace 1.15, written by Peter Selinger 2001-2017
</metadata>
<g transform="translate(0.000000,200.000000) scale(0.100000,-0.100000)"
fill="#000000" stroke="none">
<path d="M910 1903 c-369 -34 -661 -256 -775 -592 -34 -101 -47 -180 -47 -291
0 -434 298 -792 725 -871 86 -15 249 -13 339 6 307 63 553 280 653 575 14 41
25 77 25 82 0 4 -29 8 -65 8 l-65 0 2 238 3 237 52 3 52 3 -15 42 c-35 100
-130 243 -211 318 -137 128 -333 220 -500 234 -117 10 -137 11 -173 8z m-60
-189 c0 -3 -95 -160 -210 -350 l-211 -344 211 -356 c115 -196 210 -358 210
-360 0 -2 -33 -4 -73 -4 l-73 0 -213 360 -212 360 213 350 213 349 73 1 c39 0
72 -3 72 -6z m256 -439 c14 -9 29 -27 34 -41 13 -34 13 -323 0 -361 -16 -43
-47 -53 -170 -53 l-110 0 0 241 0 242 111 -6 c77 -4 118 -11 135 -22z m266
-65 c71 -20 78 -41 78 -226 l0 -164 -55 0 c-34 0 -55 4 -55 11 0 7 -10 5 -25
-5 -73 -48 -145 16 -132 116 7 51 20 66 89 96 56 24 58 26 58 63 0 28 -4 39
-15 39 -11 0 -15 -11 -15 -40 l0 -40 -61 0 -61 0 7 48 c13 89 87 129 187 102z
m308 -60 c0 -66 -1 -70 -25 -76 -38 -9 -45 -32 -45 -148 l0 -106 -60 0 -60 0
0 195 0 195 60 0 c49 0 60 -3 60 -17 0 -14 2 -15 18 -1 14 13 28 21 50 27 1 1
2 -30 2 -69z"/>
</g>
</svg>
